<?xml version="1.0" standalone="no"?>
<!DOCTYPE svg PUBLIC "-//W3C//DTD SVG 20010904//EN"
 "http://www.w3.org/TR/2001/REC-SVG-20010904/DTD/svg10.dtd">
<svg version="1.0" xmlns="http://www.w3.org/2000/svg"
 width="512.000000pt" height="512.000000pt" viewBox="0 0 512.000000 512.000000"
 preserveAspectRatio="xMidYMid meet">
<metadata>
Created by potrace 1.11, written by Peter Selinger 2001-2013
</metadata>
<g transform="translate(0.000000,512.000000) scale(0.100000,-0.100000)"
fill="#000000" stroke="none">
<path d="M2420 5009 c-41 -5 -87 -8 -102 -6 -15 2 -24 -1 -21 -6 3 -6 -8 -8
-28 -5 -19 3 -56 0 -84 -7 -27 -7 -64 -13 -82 -13 -17 0 -42 -6 -53 -12 -12
-7 -36 -13 -54 -15 -17 -2 -44 -8 -61 -13 -16 -6 -70 -23 -120 -38 -97 -30
-103 -32 -152 -58 -18 -9 -33 -15 -33 -12 0 3 -27 -8 -60 -25 -33 -16 -70 -34
-82 -39 -13 -6 -45 -24 -73 -40 -27 -16 -57 -33 -65 -37 -27 -11 -163 -104
-245 -167 -115 -87 -350 -324 -436 -441 -41 -55 -77 -101 -81 -103 -5 -2 -8
-8 -8 -14 0 -6 -11 -26 -25 -44 -14 -18 -30 -43 -35 -56 -15 -32 -33 -63 -49
-82 -7 -9 -10 -16 -6 -16 5 0 1 -8 -7 -17 -18 -21 -63 -115 -60 -125 1 -5 -2
-8 -8 -8 -6 0 -9 -3 -8 -7 1 -5 -3 -18 -10 -30 -7 -13 -10 -23 -7 -23 3 0 0
-10 -7 -22 -7 -13 -11 -26 -10 -30 1 -5 -2 -8 -8 -8 -6 0 -9 -3 -8 -7 1 -5 -4
-19 -11 -31 -7 -13 -10 -26 -7 -29 3 -3 -1 -18 -9 -33 -8 -15 -11 -30 -8 -34
4 -3 1 -6 -6 -6 -7 0 -9 -4 -6 -10 3 -5 -1 -23 -10 -40 -9 -17 -13 -35 -10
-40 3 -6 2 -10 -3 -10 -9 0 -11 -8 -14 -60 -1 -16 -4 -30 -7 -30 -6 0 -9 -16
-14 -79 -1 -16 -5 -27 -8 -25 -3 2 -6 -9 -6 -24 0 -15 -5 -53 -12 -86 -7 -32
-10 -77 -7 -100 4 -26 3 -34 -2 -21 -5 11 -8 -83 -7 -216 1 -129 5 -240 8
-246 4 -6 8 -29 9 -52 1 -22 5 -38 11 -34 5 3 6 -8 2 -28 -4 -21 -3 -29 3 -21
6 8 9 0 10 -25 2 -72 4 -83 12 -78 5 3 8 -5 8 -17 -3 -52 2 -79 14 -72 6 4 8
3 5 -3 -10 -16 4 -74 15 -67 6 4 7 -2 3 -16 -4 -12 -3 -20 1 -17 5 3 10 -9 10
-26 1 -17 6 -33 13 -35 6 -2 9 -7 6 -12 -6 -10 27 -100 37 -100 4 0 4 -7 1
-17 -4 -11 -3 -14 5 -9 8 4 10 2 6 -7 -3 -8 2 -22 11 -30 9 -9 16 -19 15 -22
-1 -26 2 -35 10 -30 6 4 7 -1 3 -11 -5 -13 -3 -15 7 -9 8 5 11 4 7 -3 -10 -15
3 -43 16 -35 6 3 7 1 3 -5 -8 -13 30 -92 44 -92 6 0 9 -3 9 -7 -3 -21 2 -33
13 -27 7 5 8 3 3 -6 -5 -8 1 -20 16 -32 13 -11 18 -16 10 -12 -20 10 17 -52
54 -89 17 -17 24 -27 16 -23 -8 6 -7 0 4 -18 9 -14 22 -23 28 -19 6 3 7 1 3
-6 -5 -7 6 -24 26 -43 18 -17 26 -28 18 -23 -16 10 -2 -9 69 -93 24 -28 48
-49 53 -46 4 3 7 1 6 -3 -6 -19 206 -228 221 -218 5 2 15 -3 22 -13 13 -16 12
-16 -6 -3 -11 7 -7 2 8 -13 16 -14 32 -24 37 -21 5 3 12 0 16 -6 5 -8 3 -9 -7
-4 -19 11 -2 -6 35 -33 15 -12 33 -19 39 -15 6 3 7 1 3 -5 -8 -13 27 -34 40
-24 5 4 6 3 2 -2 -10 -12 29 -39 42 -31 6 4 9 1 8 -7 -2 -7 5 -12 14 -12 10 1
16 -3 15 -10 -1 -6 6 -10 15 -10 10 1 15 -3 11 -9 -4 -6 0 -8 10 -4 10 4 16 2
14 -6 -1 -7 6 -11 15 -11 10 1 15 -3 11 -9 -4 -6 0 -8 11 -4 9 4 15 3 12 -1
-7 -12 52 -44 66 -36 7 5 8 3 3 -6 -6 -10 -4 -12 9 -7 9 4 15 3 12 -2 -7 -11
22 -23 36 -14 6 3 8 2 5 -4 -8 -12 71 -45 86 -36 6 4 7 1 2 -7 -6 -10 -4 -12
11 -6 10 4 15 4 11 0 -10 -10 103 -56 121 -49 7 2 11 1 8 -4 -7 -11 41 -24 56
-15 6 4 8 3 5 -3 -9 -14 38 -26 66 -18 16 5 18 4 8 -3 -16 -12 82 -38 100 -26
7 4 9 3 6 -3 -6 -10 79 -31 228 -55 51 -8 169 -13 330 -12 262 0 374 13 573
64 704 179 1297 679 1591 1337 158 356 237 798 201 1133 -7 63 -13 125 -14
137 0 11 -5 19 -10 15 -5 -3 -7 11 -3 32 3 20 3 35 -1 32 -4 -2 -8 8 -9 22 -4
61 -8 92 -13 92 -3 0 -6 10 -6 23 -4 47 -9 67 -17 67 -5 0 -7 7 -3 15 3 8 2
15 -2 15 -7 0 -11 18 -12 63 -1 10 -6 15 -12 11 -6 -4 -9 -1 -6 7 3 8 -1 26
-8 40 -7 15 -11 29 -8 32 3 3 0 16 -7 29 -7 12 -13 28 -14 33 0 6 -8 25 -18
43 -10 17 -15 32 -12 32 4 0 -4 14 -16 32 -13 17 -16 28 -8 23 9 -5 8 -1 -4
12 -9 11 -14 23 -10 26 3 4 1 7 -6 7 -7 0 -10 4 -7 9 3 5 -1 14 -9 21 -8 7
-12 16 -9 21 3 5 0 9 -6 9 -6 0 -9 4 -6 9 4 5 1 11 -4 13 -6 2 -12 10 -14 18
-2 15 -33 68 -98 172 -21 32 -38 63 -38 67 0 5 -7 12 -16 15 -8 3 -12 10 -9
16 3 5 3 10 -2 10 -4 0 -19 17 -33 37 -14 20 -36 48 -49 63 -13 14 -35 40 -50
59 -14 19 -47 55 -73 79 -26 24 -45 50 -41 56 3 6 2 8 -2 3 -5 -4 -31 17 -60
45 -28 29 -71 68 -95 87 -25 19 -54 43 -65 53 -27 25 -167 123 -202 141 -15 8
-39 25 -52 36 -13 12 -30 21 -37 21 -7 0 -14 3 -16 8 -5 11 -277 140 -285 134
-2 -1 -18 5 -36 15 -17 9 -38 16 -46 14 -8 -1 -10 2 -5 10 4 8 3 10 -4 5 -6
-4 -24 1 -39 11 -16 11 -24 13 -19 5 5 -8 -9 -5 -34 8 -23 12 -44 19 -47 16
-3 -3 -21 1 -40 9 -18 8 -41 11 -50 8 -11 -4 -14 -3 -9 5 4 8 2 10 -8 6 -8 -3
-24 0 -36 6 -12 6 -36 12 -53 12 -18 0 -54 6 -82 13 -27 7 -65 10 -84 7 -19
-2 -31 -1 -28 4 3 5 -16 9 -41 9 -26 0 -99 3 -162 7 -63 4 -149 2 -190 -3z
m1374 -999 c27 -14 66 -44 87 -68 73 -83 70 -33 67 -1043 l-3 -906 -30 -48
c-17 -27 -50 -64 -73 -82 -86 -65 -43 -63 -1136 -63 l-991 0 -277 -277 -278
-278 0 1277 0 1277 21 57 c27 73 88 135 160 162 54 21 60 21 1229 19 l1175 -2
49 -25z m-3597 -1562 c-3 -7 -5 -2 -5 12 0 14 2 19 5 13 2 -7 2 -19 0 -25z
m534 -1315 c13 -16 12 -17 -3 -4 -17 13 -22 21 -14 21 2 0 10 -8 17 -17z m254
-263 c10 -11 16 -20 13 -20 -3 0 -13 9 -23 20 -10 11 -16 20 -13 20 3 0 13 -9
23 -20z"/>
<path d="M1720 3340 l0 -140 835 0 835 0 0 140 0 140 -835 0 -835 0 0 -140z"/>
<path d="M1720 2920 l0 -140 835 0 835 0 0 140 0 140 -835 0 -835 0 0 -140z"/>
<path d="M1720 2500 l0 -140 555 0 555 0 0 140 0 140 -555 0 -555 0 0 -140z"/>
</g>
</svg>
