<svg width="118" height="29" viewBox="0 0 118 29" xmlns="http://www.w3.org/2000/svg"><title>56CA8282-0422-4688-8AF6-BEA8DE3DB23E</title><path d="M52.25 17.258l-.879-5.062c-.25-1.459-.571-3.74-.815-5.319h-.096c-.257 1.592-.616 3.937-.88 5.331l-.945 5.05h3.616zm-4.088 3.299l-1.142 5.618h-4.222l5.266-23.373h5.174l4.784 23.373h-4.244l-1.117-5.618h-4.499zm19.468-4.822c0-.312 0-.676-.063-1.01-.168-1.153-.8-2.193-1.816-2.193-1.742 0-2.384 2.44-2.384 5.294 0 3.28.914 5.146 2.324 5.146.644 0 1.387-.32 1.79-1.697.099-.274.15-.641.15-1.07v-4.47zm4.334-13.553v19.146c0 1.517.08 3.384.143 4.843h-3.743l-.244-1.947h-.089c-.628 1.201-1.996 2.222-3.631 2.222-3.584 0-5.362-3.844-5.362-8.697 0-5.914 2.65-8.79 5.54-8.79 1.51 0 2.488.72 2.98 1.76h.073V2.181h4.333zm9.024 21.034c1.654 0 2.064-3.03 2.064-5.538 0-2.384-.41-5.492-2.136-5.492-1.83 0-2.213 3.108-2.213 5.492 0 2.879.482 5.538 2.247 5.538h.038zm-.082 3.23c-3.993 0-6.498-3.116-6.498-8.693 0-6.088 3.215-8.793 6.6-8.793 3.939 0 6.408 3.267 6.408 8.694 0 6.972-3.869 8.792-6.475 8.792h-.035zm13.266-6.321c0 .422.08.817.171 1.082.435 1.417 1.172 1.765 1.762 1.765 1.676 0 2.352-2.064 2.352-5.365 0-3.005-.714-5.075-2.371-5.075-.822 0-1.514.868-1.753 1.8a4.574 4.574 0 0 0-.161 1.063v4.73zM89.838 2.182h4.333v8.823h.07c.854-1.302 1.99-2.046 3.64-2.046 3.267 0 4.908 3.61 4.908 8.33 0 5.964-2.447 9.157-5.618 9.157-1.512 0-2.518-.651-3.426-2.301h-.091l-.241 2.026h-3.72c.063-1.403.145-3.326.145-4.843V2.182zm23.335 13.908c.023-2.379-.695-4.046-2.07-4.046-1.568 0-2.235 2.232-2.282 4.045h4.352zm-4.368 2.977c.051 3.063 1.708 4.06 3.765 4.06a9.495 9.495 0 0 0 3.247-.583l.584 3.03c-1.149.48-2.923.783-4.625.783-4.65 0-7.19-3.089-7.19-8.364 0-5.66 2.946-9.061 6.793-9.061 3.717 0 5.777 3.005 5.777 7.91 0 1.123-.047 1.756-.124 2.249l-8.227-.024zM20.89 0h12.246v28.945L20.89 0zm-8.628 0H.008v28.945L12.262 0zm4.315 10.665l7.802 18.278h-5.112l-2.334-5.822h-5.712l5.356-12.456z" fill="#B4C2CD" fill-rule="evenodd"/></svg>