<svg width="71" height="21" viewBox="0 0 71 21" xmlns="http://www.w3.org/2000/svg"><title>B732099A-A558-41E8-9367-920AB7C0C130</title><defs><linearGradient x1="50%" y1="4.563%" x2="50%" y2="94.867%" id="a"><stop stop-color="#C3CDD5" offset="0%"/><stop stop-color="#C3CDD5" stop-opacity=".9" offset="100%"/></linearGradient></defs><path d="M348.655 18.895c-.909-.94-2.096-1.541-3.308-1.96-1.633-.581-3.382-.715-5.003-1.334-.531-.206-1.06-.477-1.445-.913-.514-.581-.624-1.476-.316-2.185.198-.453.582-.799 1.015-1.008.718-.345 1.533-.396 2.313-.334.794.06 1.6.326 2.193.887.514.476.837 1.139.968 1.83.02.179.146.37.343.353 1.271.013 2.542.033 3.813.03.181.025.355-.133.303-.326-.146-1.038-.5-2.055-1.08-2.924-.7-1.059-1.748-1.845-2.903-2.314-1.067-.442-2.216-.63-3.36-.696h-1.316c-1.406.076-2.834.285-4.127.887-.943.433-1.803 1.11-2.343 2.023-.531.871-.738 1.91-.75 2.926a10.524 10.524 0 0 0-2.935-3.66c-1.63-1.315-3.668-2.062-5.737-2.176h-1.075a9.768 9.768 0 0 0-4.082 1.171 10.765 10.765 0 0 0-4.363 4.482c-.162-.801-.414-1.59-.827-2.295a6.034 6.034 0 0 0-2.322-2.277c-1.26-.71-2.701-.995-4.124-1.081h-1.37c-1.032.062-2.067.185-3.06.491-1.152.35-2.27.953-3.037 1.92-.438.54-.724 1.188-.912 1.858 0-1.103-.001-2.206.001-3.31-.002-.12-.002-.262-.105-.344-.085-.098-.221-.09-.338-.093-1.15.006-2.3-.003-3.45.004-.172-.01-.31.152-.316.32-.018.317.006.635-.007.953a.187.187 0 0 1-.09.187c-.118-.051-.22-.13-.324-.205-1.388-.998-3.022-1.676-4.724-1.782h-.908a9.825 9.825 0 0 0-2.719.525c-1.522.537-2.893 1.481-4.01 2.662a9.87 9.87 0 0 0-2.607 4.965 12.805 12.805 0 0 0-.211 1.695v1.16c.069 1.279.329 2.555.845 3.727.816 1.855 2.192 3.433 3.848 4.546 1.583 1.064 3.487 1.58 5.373 1.559 1.887.017 3.735-.713 5.212-1.896.082-.056.231-.215.305-.064.036.369-.007.742.017 1.113.006.164.143.326.311.32 1.194.003 2.389.003 3.583 0 .183.005.328-.179.313-.36.006-1.086-.002-2.171.004-3.257.352.767.808 1.494 1.418 2.074 1.023 1.001 2.378 1.573 3.753 1.84 1.146.23 2.32.252 3.484.222 1.23-.058 2.463-.248 3.63-.659.93-.325 1.82-.803 2.544-1.488a4.974 4.974 0 0 0 1.414-2.467c.311.458.647.899 1.02 1.306a9.838 9.838 0 0 0 5.106 3.038c2.217.519 4.613.332 6.674-.68 1.93-.937 3.542-2.522 4.584-4.428.286 1.14.798 2.24 1.6 3.09.683.741 1.548 1.289 2.478 1.641 1.607.617 3.352.702 5.052.645 1.398-.073 2.804-.314 4.103-.864 1.001-.425 1.945-1.06 2.602-1.956.572-.773.878-1.725.951-2.686v-.916c-.106-1.31-.641-2.592-1.569-3.512zm-53.99 3.46a4.902 4.902 0 0 1-2.434 2.2c-1.313.544-2.83.619-4.162.098-1.164-.443-2.151-1.328-2.768-2.427-.762-1.337-1.004-2.93-.892-4.459.127-1.547.704-3.088 1.764-4.219A5.084 5.084 0 0 1 289.05 12c1.216-.19 2.5-.03 3.611.52.967.483 1.742 1.327 2.19 2.323.482 1.06.652 2.24.67 3.401.018 1.408-.174 2.866-.854 4.11zm16.5 1.7c-.285.515-.76.9-1.293 1.12-.655.281-1.376.332-2.078.309-1.046-.032-2.146-.307-2.934-1.051-.608-.56-.96-1.359-1.1-2.174-.016-.157-.12-.334-.296-.324-1.219-.04-2.438-.025-3.656-.063-.006-2.148.006-4.297-.006-6.447.138.422.298.842.545 1.211.462.722 1.15 1.263 1.886 1.664 1.38.748 2.926 1.07 4.444 1.38 1.152.247 2.328.479 3.39 1.019.614.317 1.213.812 1.381 1.527a2.74 2.74 0 0 1-.283 1.828zm3.233-5.38c-.915-.843-2.047-1.394-3.208-1.784-1.232-.423-2.524-.6-3.776-.94-.663-.18-1.33-.388-1.923-.748-.44-.27-.837-.666-1-1.177-.191-.593-.137-1.286.218-1.805.302-.46.797-.746 1.306-.903.692-.205 1.427-.217 2.14-.128.733.096 1.463.39 1.992.933.473.464.766 1.096.89 1.75.023.172.13.361.32.357 1.275.015 2.552.031 3.828.034-.572 1.388-.82 2.906-.787 4.41zm14.865 3.528a5.276 5.276 0 0 1-2.225 2.22c-1.075.555-2.328.693-3.51.504a5.109 5.109 0 0 1-2.665-1.304c-.754-.672-1.262-1.594-1.562-2.56-.368-1.197-.455-2.476-.314-3.72.17-1.36.648-2.735 1.597-3.735a5.213 5.213 0 0 1 3.248-1.646c1.04-.117 2.12.026 3.07.49a5.397 5.397 0 0 1 2.392 2.353c.534 1.038.786 2.214.812 3.382.036 1.379-.202 2.79-.843 4.016zm15.426 2.484c-.572.506-1.33.73-2.072.786-1.014.057-2.074-.03-2.99-.516a3.405 3.405 0 0 1-1.627-1.91c-.128-.306-.157-.64-.257-.953-.105-.222-.38-.147-.573-.174-1.02-.003-2.04-.033-3.059-.03.523-1.612.64-3.344.432-5.023.7.94 1.748 1.52 2.81 1.929 1.763.686 3.662.85 5.463 1.395.687.216 1.38.48 1.947.945.378.306.674.743.746 1.238.11.843-.18 1.754-.82 2.313z" transform="translate(-280 -8)" fill="url(#a)" fill-rule="evenodd"/></svg>