<svg width="108" height="15" viewBox="0 0 108 15" xmlns="http://www.w3.org/2000/svg"><title>1245924C-8B21-4559-A815-78BCC8C2B260</title><defs><linearGradient x1="50%" y1="4.563%" x2="50%" y2="94.867%" id="a"><stop stop-color="#C3CDD5" offset="0%"/><stop stop-color="#C3CDD5" stop-opacity=".9" offset="100%"/></linearGradient></defs><path d="M2.709 8.678V15H0V0h2.709v6.236h7.359V0h2.708v15h-2.708V8.678h-7.36zM26.807 15h2.709V0h-2.709v15zm26.632 0l-3.79-5.229h-3.392V15h-2.71V0h6.874c3.546 0 5.727 1.82 5.727 4.757 0 2.487-1.519 3.986-3.679 4.565L56.633 15h-3.194zM50.201 2.4h-3.944v5.036h3.965c1.938 0 3.172-.986 3.172-2.53 0-1.65-1.19-2.506-3.193-2.506zm30.618-.043h-8.724v3.9h7.733v2.357h-7.733v4.03h8.833V15H69.386V0h11.433v2.357zM99.805 15h-5.75V0h5.75C104.651 0 108 3.236 108 7.48c0 4.243-3.35 7.52-8.195 7.52zm0-12.6h-3.04v10.201h3.04c3.24 0 5.354-2.121 5.354-5.08 0-2.957-2.115-5.12-5.354-5.12z" fill="url(#a)" fill-rule="evenodd"/></svg>