<svg width="122" height="33" viewBox="0 0 122 33" xmlns="http://www.w3.org/2000/svg"><title>16244C91-CE30-428F-BCC2-5EBFD8A3B48A</title><defs><linearGradient x1="50%" y1="4.563%" x2="50%" y2="94.867%" id="a"><stop stop-color="#C3CDD5" offset="0%"/><stop stop-color="#C3CDD5" stop-opacity=".9" offset="100%"/></linearGradient></defs><path d="M975.041 736.207v9.926s3.576.897 9.177.897c5.564 0 9.178-.893 9.178-.893v-3.37s-3.885.77-9.215.77c-2.585 0-4.3-.307-5.22-.403-.005-.808.001-3.105 0-3.924 1.03-.104 2.764-.405 5.258-.405 5.189.02 9.178.8 9.178.8v-3.397s-3.56-.895-9.178-.895c-5.659 0-9.178.894-9.178.894zm22.713 10.6h4.02v-11.31h-4.02zm-53.777 0h4.02v-11.31h-4.02zm22.726-4.279s-2.904-2.172-7.175-4.408c-3.74-1.957-7.029-2.604-7.029-2.604v11.291h3.89v-6.034c.935.383 1.94.796 3.133 1.422 4.272 2.237 7.178 4.612 7.178 4.612h3.904v-11.31h-3.9v7.031zm-35.38-.446c-.898-.848-6.993-6.778-6.993-6.778l-2.984 2.748 9.977 9.057 9.972-9.051-2.976-2.754s-6.095 5.93-6.996 6.778zm98.104-8.339c.863 0 1.562-.705 1.562-1.575v-6.13c0-.872-.699-1.577-1.562-1.577h-6.063c-.861 0-1.557.705-1.557 1.577v4.698c0 1.46-1.102 2.714-1.574 3.21-.477.502-1.756 1.554-3.8 1.558h-5.591v9.316h9.217v-5.65c.007-2.066 1.042-3.357 1.539-3.838.494-.48 1.733-1.589 3.176-1.589h4.653zm11.618 2.903a5.256 5.256 0 0 0-3.772-1.566c-3.032 0-5.45 2.494-5.45 5.47 0 .547.234 1.574.234 2.014 0 2.346-1.88 4.243-4.197 4.243h-4.496c-.861 0-1.557.707-1.557 1.578v6.13c0 .87.696 1.577 1.557 1.577h6.063a1.57 1.57 0 0 0 1.562-1.578v-4.545c0-2.342 1.88-4.242 4.2-4.242.432 0 1.451.236 1.992.236 2.945 0 5.41-2.441 5.41-5.503a5.454 5.454 0 0 0-1.546-3.814z" transform="translate(-921 -724)" fill="url(#a)" fill-rule="evenodd"/></svg>