<svg width="145" height="33" viewBox="0 0 145 33" xmlns="http://www.w3.org/2000/svg"><title>4BD9167F-5F2F-4904-99AA-25D188305939</title><path d="M144.25 15.297v-2.645h-3.145V8.539l-.106.034-2.954.944-.058.018v3.117h-4.663v-1.736c0-.809.174-1.427.515-1.84.338-.407.823-.615 1.44-.615.445 0 .905.11 1.367.325l.116.054V6.054l-.054-.02c-.432-.163-1.02-.245-1.747-.245-.917 0-1.751.209-2.478.622a4.33 4.33 0 0 0-1.7 1.756c-.4.75-.602 1.617-.602 2.576v1.909h-2.19v2.645h2.19v11.146h3.143V15.297h4.663v7.083c0 2.917 1.317 4.396 3.915 4.396.427 0 .876-.053 1.335-.155.467-.105.785-.21.972-.322l.042-.026v-2.67l-.128.089a2.143 2.143 0 0 1-.633.288c-.25.073-.459.11-.62.11-.61 0-1.06-.171-1.339-.51-.282-.34-.426-.937-.426-1.771v-6.512h3.146zm-23.28 8.793c-1.142 0-2.041-.395-2.675-1.174-.638-.782-.961-1.898-.961-3.315 0-1.463.323-2.607.961-3.403.634-.792 1.526-1.193 2.649-1.193 1.09 0 1.958.383 2.58 1.14.624.761.941 1.897.941 3.376 0 1.498-.298 2.648-.886 3.417-.584.764-1.462 1.152-2.61 1.152zm.14-11.77c-2.178 0-3.907.666-5.14 1.98-1.232 1.315-1.856 3.133-1.856 5.407 0 2.16.61 3.896 1.812 5.161 1.203 1.266 2.84 1.907 4.865 1.907 2.11 0 3.805-.675 5.038-2.008 1.232-1.33 1.856-3.132 1.856-5.353 0-2.193-.586-3.943-1.742-5.2-1.156-1.257-2.783-1.894-4.833-1.894zm-12.066 0c-1.48 0-2.705.395-3.641 1.175-.942.785-1.42 1.814-1.42 3.06 0 .647.104 1.223.307 1.71.204.49.52.92.94 1.282.416.359 1.059.735 1.91 1.117.716.308 1.25.568 1.59.773.331.201.567.404.7.6.129.193.194.457.194.782 0 .927-.664 1.377-2.03 1.377-.508 0-1.086-.11-1.72-.328a6.362 6.362 0 0 1-1.76-.932l-.13-.098V26l.048.023c.445.214 1.005.395 1.667.538.66.142 1.259.215 1.78.215 1.607 0 2.9-.398 3.845-1.183.95-.79 1.432-1.844 1.432-3.132 0-.93-.26-1.727-.77-2.37-.508-.638-1.389-1.223-2.618-1.74-.978-.411-1.606-.752-1.864-1.013-.25-.253-.376-.61-.376-1.062a1.2 1.2 0 0 1 .477-.983c.323-.262.773-.395 1.338-.395.524 0 1.06.087 1.593.256.532.17 1 .396 1.39.674l.13.092v-3l-.05-.022c-.36-.161-.836-.3-1.413-.411a8.302 8.302 0 0 0-1.549-.168zM95.788 24.09c-1.141 0-2.041-.395-2.675-1.174-.638-.782-.96-1.897-.96-3.315 0-1.463.322-2.607.96-3.403.635-.792 1.526-1.193 2.65-1.193 1.09 0 1.957.383 2.579 1.14.625.761.941 1.897.941 3.376 0 1.498-.298 2.648-.886 3.417-.583.764-1.461 1.152-2.61 1.152zm.14-11.77c-2.178 0-3.907.666-5.139 1.98-1.232 1.315-1.857 3.133-1.857 5.407 0 2.16.61 3.896 1.813 5.161 1.203 1.266 2.84 1.907 4.865 1.907 2.11 0 3.805-.675 5.037-2.008 1.232-1.33 1.857-3.132 1.857-5.353 0-2.193-.586-3.943-1.742-5.2-1.157-1.257-2.784-1.894-4.834-1.894zM84.16 15.04v-2.388h-3.105v13.79h3.105v-7.054c0-1.2.26-2.185.774-2.93.508-.735 1.184-1.107 2.009-1.107.28 0 .594.048.934.143.336.095.58.198.724.306l.13.099v-3.27l-.05-.023c-.29-.129-.698-.194-1.216-.194a3.1 3.1 0 0 0-2.077.778c-.525.453-.905 1.075-1.195 1.85h-.033zm-8.667-2.72c-1.425 0-2.695.319-3.777.948a6.27 6.27 0 0 0-2.49 2.675c-.568 1.142-.856 2.476-.856 3.964 0 1.303.28 2.498.832 3.552.552 1.056 1.334 1.882 2.324 2.454.988.572 2.13.863 3.395.863 1.476 0 2.736-.309 3.746-.916l.04-.025v-2.972l-.13.1a5.745 5.745 0 0 1-1.519.826c-.549.2-1.05.301-1.488.301-1.219 0-2.197-.398-2.907-1.183-.712-.787-1.073-1.89-1.073-3.28 0-1.398.377-2.53 1.118-3.366.74-.833 1.72-1.256 2.913-1.256 1.02 0 2.016.361 2.957 1.074l.13.099v-3.131l-.042-.025c-.354-.207-.837-.378-1.437-.508a8.23 8.23 0 0 0-1.736-.195zm-9.262.332h-3.105v13.79h3.105v-13.79zm-1.52-5.875c-.512 0-.958.182-1.324.542a1.827 1.827 0 0 0-.554 1.352c0 .529.184.975.548 1.327.362.35.81.528 1.33.528s.968-.178 1.334-.528c.369-.352.556-.798.556-1.327 0-.517-.182-.968-.54-1.338a1.814 1.814 0 0 0-1.35-.556zm-7.75 4.857v14.809h3.17V7.199h-4.386l-5.576 14.294-5.41-14.294h-4.566v19.244h2.978v-14.81h.103l5.713 14.81h2.248l5.624-14.809h.103zM14.845 16.03H.235V.768h14.61zm16.13 0H16.366V.768h14.61zM14.844 32.885H.235v-15.26h14.61zm16.131 0H16.366v-15.26h14.61z" fill="#B4C2CD" fill-rule="evenodd"/></svg>