<svg width="69" height="50" viewBox="0 0 69 50" xmlns="http://www.w3.org/2000/svg"><title>271A35BC-739D-4DE0-B9FC-9C1D487A5AD8</title><defs><linearGradient x1="50%" y1="4.563%" x2="50%" y2="94.867%" id="a"><stop stop-color="#C3CDD5" offset="0%"/><stop stop-color="#C3CDD5" stop-opacity=".9" offset="100%"/></linearGradient></defs><g transform="translate(-234 -722)" fill="url(#a)" fill-rule="evenodd"><path d="M293.508 736.35c.26-.162.598-.316.814-.417.22-.1.504-.215.811-.215.299 0 .508.094.76.266.252.176.464.362.703.704.234.347.688.954.849 1.171.164.222.61.854.795.967.185.117.225.098.32.081.105-.016.215-.095.328-.399.101-.284.204-.494.332-.806.137-.31.405-.573.704-.753.303-.182.974-.54 1.693-.493.536.038.895.182 1.026.397.115.194.162.59.1.836-.068.243-.568 2.44-.69 2.946-.126.511-1.389 5.608-1.541 6.327-.15.722-.52 2.606-.702 3.487-.185.885-1.255 6.038-1.426 6.757-.176.714-1.156 5.077-1.513 6.4-.351 1.331-.94 2.996-1.098 3.458-.19.56-.586 1.514-.793 1.951-.288.588-1.091 1.712-1.176 1.774a8.694 8.694 0 0 1-.682.462c-.253.145-.688.376-1.141.474-.45.097-1.273.157-1.397.082-.224-.134-.567-.29-.855-.603-.16-.167-.702-.805-1.219-2.033-.52-1.23-1.017-3.624-1.05-4.28-.033-.657-.111-1.114-.109-1.216.005-.094-.027-.33-.027-.33s.064-.324.421-.7c.349-.376.528-.557.964-.686.437-.134.769-.099.957-.015.18.077.336.144.336.29 0 .393-.075.735.015 1.248.096.585.234 1.276.4 1.85.171.574.704 2.084.958 2.474.25.394.35.529.536.51.182-.014.32-.063.553-.429.238-.358.69-1.294.892-1.898.202-.609.484-1.718.667-2.314a65.812 65.812 0 0 0 1.597-6.796c.133-.803.414-2.642.577-3.462.165-.815.349-1.705.42-2.183.067-.466.392-2.455.445-2.734.049-.279.919-4.509 1.071-5.258.147-.755.25-1.115.265-1.226.02-.12.12-.232.138-.33.014-.08-.07-.182-.152-.249a.507.507 0 0 0-.25-.11c-.07 0-.193.06-.338.11-.268.098-.557.118-.843.118-.283 0-.536-.17-.849-.459-.313-.291-.906-1.075-1.184-1.41-.274-.341-.724-1.04-.977-1.24-.25-.2-.639-.32-.842-.497-.199-.183-.248-.364-.298-.586-.051-.234-.035-.414-.035-.495 0-.084.25-.295.318-.345.069-.052.35-.127.422-.173m-33.175-10.652c-.187 0-.287.041-.397.086a1.455 1.455 0 0 1-.62.134c-.234-.017-.397.03-.547-.159-.155-.185-.255-.33-.271-.505-.015-.171.032-.245-.028-.362a1.94 1.94 0 0 1-.122-.407c-.017-.083-.1-.402.016-.596.12-.199.351-.476.58-.608.223-.132.728-.471 1.14-.554.41-.075.37-.068.612-.068a2 2 0 0 1 .677.127c.145.048.466.325.496.385.06.117.109.288.008.602-.101.31-.419.754-.553 1.001-.133.244-.346.531-.494.664-.15.13-.423.26-.497.26"/><path d="M254.236 749.58c-.05.479-.278 1.653-.348 2.189-.065.537-.254 1.196-.387 1.475-.133.286-.253.714-.394.714-.145 0-.204-.2-.298-.566-.088-.371-.072-.639-.091-.99-.022-.348.155-1.223.185-1.59.024-.374.317-1.629.465-2.278.158-.633.485-1.666.593-1.842.111-.175.206-.675.294-.704.079-.029.092.61.092.962s-.055 2.149-.111 2.63m-1.436-9.002c-.437.02-.47 0-.688.065-.22.066-.483.165-.516.022-.03-.147.07-.578.07-.578s.113-.177.45-.293c.333-.117.659-.153.9-.292.239-.142.637-.525.637-.525s.182.33.17.64c-.02.313-.117.536-.267.671-.156.127-.322.277-.756.29m-7.668-2.309c-.07.195-.237.638-.316.78-.081.14-.484.874-.648 1.086-.16.21-.368.574-.462.671a5.109 5.109 0 0 1-.626.532c-.125.098-.544.291-.62.325-.226.09-.586.191-1.155.213a3.847 3.847 0 0 1-1.64-.315c-.655-.298-1.2-.712-1.787-1.859-.586-1.15-.806-1.718-.806-2.409 0-.69.27-1.885.504-2.426.237-.541.656-1.658.892-2.094.206-.378.566-.919.887-1.217.096-.094.169-.181.3-.26.136-.083.22-.134.487-.378.27-.245.451-.265.519-.292.064-.036.202.027.266.013.148-.038.205.014.306.28.068.176.568 1.211.705 1.475.133.252.253.257.27.39.018.127.031.442.216.87.183.428.757 1.247 1.008 1.62.25.378 1.115 1.339 1.366 1.662.252.337.459.538.459.664 0 .134-.06.472-.125.67m45.002-3.88c-.366-.049-1.494.092-1.824.139-.325.043-1.024.157-1.477.5-.584.445-.62 1.049-.639 1.428-.016.374-.02.98-.035 1.421-.015.472-.052.608-.13 1.051-.052.177-.1.401-.14.505-.05.135-.157.164-.329.073-.125-.067-.295-.312-.397-.408-.247-.23-1.53-1.882-2.1-2.558-.64-.756-1.059-.774-1.513-.784-.36-.009-1.244.276-1.508.402-.318.152-.454.347-.454.347s-.065.409-.03.817a4.33 4.33 0 0 1-.18 1.417c-.16.504-.47.743-.655.786-.293.063-.772-.252-1.797-1.504-.865-1.055-1.83-3.07-2.149-4.087-.322-1.02-.705-2.237-.72-2.433-.02-.198-.037-.4-.076-.502a.959.959 0 0 1-.066-.4c0-.182-.056-.327-.056-.327s-.122-1.29-.187-1.799c-.068-.507-.144-2.59-.231-3.182-.079-.59-.692-.78-1.211-.669a5.81 5.81 0 0 0-1.662.673c-.501.315-.691.867-.643 1.575.045.619.464 2.398.533 2.855.05.324.028.617.11.913.084.294-.017.788-.1 1.263-.082.475-.418 1.195-.6 1.623-.187.43-.67 1.42-.756 1.587-.085.164-.512.913-.659 1.19-.087.173-.447.79-.799 1.319-.322.484-1.423 2.031-2.017 2.606-.582.571-1.38 1.022-1.679 1.055-.304.037-.547-.046-.802-.249-.31-.253-.852-1.315-1.053-1.697-.2-.385-.631-1.178-.631-1.178s-.165-.261-.518-.374c-.355-.114-.856-.052-1.303.094-.58.186-1.07.4-1.622.673-.385.189-.987.583-1.127.473-.152-.13-.019-.348-.152-.873-.133-.526-.598-.63-1.119-.589-.52.046-.614-.368-.736-.673-.125-.291-.302-.573-.618-.669-.308-.092-.686-.187-.988-.123-.3.062-.642.275-.944.5-.3.23-.892.814-1.158 1.095-.27.282-.488.385-.488.385s-.239-.058-.574-.218c-.335-.167-.95-.484-1.352-.816-.4-.327-.732-.746-.732-.746s-.036-.862-.036-1.147c0-.658-.251-1.997-.422-2.622-.163-.624-.63-1.789-.73-2.081-.1-.291-.186-.604-.374-.92-.182-.309-1.018-1.531-1.285-1.855-.275-.33-1-1.046-1.064-1.16-.06-.117-.065.05-.431-.283-.372-.324-1.127-.665-1.43-.65l-.532.08a4.54 4.54 0 0 0-1.141.656c-.337.261-.368.751-.368 1.079 0 .33.08 1.034.156 1.255.1.294.049.363-.087.525 0 0-.52.312-1.002.635-.489.334-1.396 1.087-1.962 1.644-.57.558-1.312 1.606-1.795 2.459-.485.85-.862 1.966-1.032 2.55a9.32 9.32 0 0 0-.264 1.566c-.027.376.013.752.148 1.412.137.652.574 1.345.889 1.932.317.588.803 1.07 1.14 1.41.334.341.873.62 1.274.77.402.15 1.374.248 1.914.282.316.018 1.118-.132 1.356-.132.1 0 .797-.214 1.031-.285.188-.05.591-.2.98-.324.52-.16 1.4-.758 1.524-.85.063-.047.212-.16.438-.347.225-.19.418-.392.753-.704.336-.309.79-.96 1.072-1.378l.573-.82s.402.243.72.38c.3.133.806.395 1.039.542.237.147.469.359.289.785a29.4 29.4 0 0 1-.455.934c-.188.36-.255.705-.22.966.032.248.087.297.253.425.125.097.203.12.285.135.268.053.15-.004.738-.101.403-.066 1.644-.474 2.044-.59.402-.115.592-.19 1.052-.382.376-.16.537.242.39.597-.069.159-.22.42-.32.703-.048.146-.184.368-.23.602-.054.234-.115.433-.133.516-.019.077-.09.118-.146.207-.14.216-.287.64-.455 1.053-.161.409-.62 1.574-.735 1.919-.117.34-.4 1.588-.474 1.868-.065.277-.122.575-.158.718a11.94 11.94 0 0 0-.12 1.039c-.024.34-.095 1.264-.106 1.955-.01.692.026 1.463.144 2.057.118.588.265 1.09.383 1.288.118.198.286.755.546.994.144.125.565.308 1.03.308.475 0 .928-.279 1.215-.39.286-.119.555-.538.582-.577.03-.037.553-.833 1.308-2.613.756-1.777 1.056-4.634 1.155-5.831.102-1.196.035-3.05.019-4.014-.02-.963-.218-2.953-.218-3.13 0-.18-.065-.165-.016-.346.048-.18.334-.38.446-.442.152-.09.367-.188.569-.291.198-.1.556-.186.723-.195.2-.014.278.1.408.29.093.14.204.346.313.582.196.408.593 1.113 1.004 1.467.25.217.539.463.79.56.406.147.992.245 1.85.26.851.018 1.679-.333 1.98-.468.302-.13.832-.502.95-.565.116-.063.64-.469.993-.765.362-.31 1.27-1.37 1.608-1.76.335-.392 1.045-1.433 1.43-2.063.388-.63 1.013-1.59 1.318-2.1.248-.415.292-.533.368-.675 0 0 .204.235.331.356.123.12.235.488.443.941.21.45.619 1.09.82 1.396a20.433 20.433 0 0 0 1.829 2.377 6.093 6.093 0 0 0 1.96 1.447c.568.262 1.045.31 1.379.31.337 0 .569-.034.909-.118.334-.082.867-.443 1.254-.757.386-.309 1.01-1.136 1.01-1.136s.283.187.597.498c.264.268.478.537.698.792.206.237.432.492.683.74.224.221.41.37.552.488.305.242.449.333.846.42.397.079.672.065.955.019.264-.048.635-.164.851-.234.205-.069.491-.158.643-.267.21-.142.433-.412.587-.65.204-.333.722-1.376 1.023-2.454.3-1.086.441-2.032.485-2.434.035-.273.074-.348.538-.572.466-.213.737-.381.975-.618.23-.233.427-.652.411-.78-.02-.132-.763-.17-1.135-.22"/></g></svg>